<svg width="800" height="600" xmlns="http://www.w3.org/2000/svg">
  <!-- Background with gradient -->
  <defs>
    <linearGradient id="grad1" x1="0%" y1="0%" x2="100%" y2="100%">
      <stop offset="0%" style="stop-color:#4299e1;stop-opacity:0.2" />
      <stop offset="100%" style="stop-color:#2b6cb0;stop-opacity:0.5" />
    </linearGradient>
  </defs>
  
  <!-- Background rectangle -->
  <rect width="800" height="600" fill="url(#grad1)" />
  
  <!-- Abstract tech elements -->
  <circle cx="200" cy="300" r="80" fill="none" stroke="#4299e1" stroke-width="2" />
  <circle cx="200" cy="300" r="40" fill="none" stroke="#4299e1" stroke-width="2" />
  
  <circle cx="600" cy="200" r="60" fill="none" stroke="#4299e1" stroke-width="2" />
  <circle cx="600" cy="200" r="30" fill="none" stroke="#4299e1" stroke-width="2" />
  
  <!-- Connection lines -->
  <line x1="200" y1="300" x2="600" y2="200" stroke="#4299e1" stroke-width="2" />
  
  <!-- Grid pattern -->
  <path d="M0 100 H800 M0 200 H800 M0 300 H800 M0 400 H800 M0 500 H800" stroke="#4299e1" stroke-width="1" stroke-opacity="0.2" />
  <path d="M100 0 V600 M200 0 V600 M300 0 V600 M400 0 V600 M500 0 V600 M600 0 V600 M700 0 V600" stroke="#4299e1" stroke-width="1" stroke-opacity="0.2" />
  
  <!-- Data points -->
  <circle cx="200" cy="200" r="5" fill="#1a365d" />
  <circle cx="300" cy="250" r="5" fill="#1a365d" />
  <circle cx="400" cy="150" r="5" fill="#1a365d" />
  <circle cx="500" cy="300" r="5" fill="#1a365d" />
  <circle cx="600" cy="350" r="5" fill="#1a365d" />
  
  <!-- Connection lines between data points -->
  <polyline points="200,200 300,250 400,150 500,300 600,350" fill="none" stroke="#1a365d" stroke-width="2" />
  
  <!-- Abstract code elements -->
  <rect x="100" y="400" width="200" height="20" rx="5" fill="#1a365d" fill-opacity="0.7" />
  <rect x="150" y="430" width="100" height="20" rx="5" fill="#1a365d" fill-opacity="0.5" />
  <rect x="120" y="460" width="150" height="20" rx="5" fill="#1a365d" fill-opacity="0.3" />
  
  <rect x="500" y="420" width="200" height="20" rx="5" fill="#1a365d" fill-opacity="0.7" />
  <rect x="550" y="450" width="100" height="20" rx="5" fill="#1a365d" fill-opacity="0.5" />
  <rect x="520" y="480" width="150" height="20" rx="5" fill="#1a365d" fill-opacity="0.3" />
</svg>